<?xml version="1.0" encoding="UTF-8" standalone="no"?>
<!-- Created with Inkscape (http://www.inkscape.org/) -->

<svg
   xmlns:dc="http://purl.org/dc/elements/1.1/"
   xmlns:cc="http://creativecommons.org/ns#"
   xmlns:rdf="http://www.w3.org/1999/02/22-rdf-syntax-ns#"
   xmlns:svg="http://www.w3.org/2000/svg"
   xmlns="http://www.w3.org/2000/svg"
   xmlns:sodipodi="http://sodipodi.sourceforge.net/DTD/sodipodi-0.dtd"
   xmlns:inkscape="http://www.inkscape.org/namespaces/inkscape"
   width="160mm"
   height="140mm"
   viewBox="0 0 160 140"
   version="1.1"
   id="svg822"
   inkscape:version="0.92.4 (5da689c313, 2019-01-14)"
   sodipodi:docname="add_folder.svg">
  <defs
     id="defs816" />
  <sodipodi:namedview
     id="base"
     pagecolor="#ffffff"
     bordercolor="#666666"
     borderopacity="1.0"
     inkscape:pageopacity="0.0"
     inkscape:pageshadow="2"
     inkscape:zoom="1.4"
     inkscape:cx="206.54177"
     inkscape:cy="316.43537"
     inkscape:document-units="mm"
     inkscape:current-layer="layer1"
     showgrid="false"
     inkscape:window-width="1920"
     inkscape:window-height="1017"
     inkscape:window-x="-8"
     inkscape:window-y="-8"
     inkscape:window-maximized="1" />
  <metadata
     id="metadata819">
    <rdf:RDF>
      <cc:Work
         rdf:about="">
        <dc:format>image/svg+xml</dc:format>
        <dc:type
           rdf:resource="http://purl.org/dc/dcmitype/StillImage" />
        <dc:title></dc:title>
      </cc:Work>
    </rdf:RDF>
  </metadata>
  <g
     inkscape:label="Ebene 1"
     inkscape:groupmode="layer"
     id="layer1"
     transform="translate(0,-157)">
    <path
       style="fill:#c5c5c5;fill-opacity:1;stroke-width:0.26744828"
       d="m 107.96969,296.68357 c -6.78832,-0.77122 -14.130295,-3.32337 -19.859207,-6.90328 -10.803271,-6.7508 -17.941764,-17.05965 -20.353099,-29.39236 l -0.629254,-3.2183 -33.564064,0.0975 L 0,257.36466 l 0.17677839,-6.1081 c 0.097224,-3.35945 0.17677839,-25.9415 0.17677839,-50.18233 V 157 H 29.995067 59.636574 l -0.103744,6.10137 -0.103746,6.10136 25.537165,0.0684 33.605151,-0.13544 c 0.0612,0.18438 0.0547,9.22598 -0.0143,20.09244 l -0.12559,19.75721 1.30343,0.18074 c 20.26126,2.80947 35.87187,16.94207 39.62563,35.87388 0.8526,4.29998 0.8526,11.37733 0,15.67731 -4.56651,23.03088 -27.00769,38.73655 -51.39083,35.96635 z m 13.77769,-8.52467 c 7.86721,-1.68118 14.55873,-5.2783 19.96095,-10.73032 3.30913,-3.33963 5.11029,-5.88767 7.06857,-9.99968 3.59415,-7.54699 4.27558,-15.73968 2.00217,-24.07115 -0.71799,-2.63129 -3.6233,-8.48808 -5.38807,-10.86177 -1.9115,-2.57106 -5.7959,-6.38839 -8.39492,-8.24997 -4.5113,-3.23127 -10.52015,-5.77743 -16.09111,-6.81836 -3.48409,-0.651 -11.1627,-0.65571 -14.61263,-0.009 -15.465937,2.89928 -27.481476,14.18944 -30.602573,28.7551 -0.585848,2.73406 -0.785606,7.88325 -0.416169,10.72767 1.548507,11.9225 8.992554,22.19079 20.181207,27.8379 3.547668,1.79056 8.622655,3.33794 12.914955,3.93778 2.88773,0.40357 10.43158,0.11133 13.37762,-0.51822 z M 110.2367,271.11562 V 257.03554 H 95.034425 82.477979 v -4.02288 -4.02288 H 95.034425 110.2367 v -10.14889 c 0,-5.58188 0.0786,-9.1514 0.1747,-11.16605 l 0.1747,-3.663 h 3.8259 3.8259 v 11.16606 13.81188 h 15.06893 12.4231 v 3.84691 3.84691 l -4.04301,0.17597 c -2.22365,0.0968 -6.35884,0.17597 -12.4231,0.17597 H 118.2379 l -10e-4,11.06292 c -5.3e-4,6.0846 -0.079,9.7748 -0.1741,11.43424 l -0.17277,3.01716 h -3.82649 -3.82651 z M 67.574597,246.44196 c 0.828089,-4.872 1.921634,-8.31015 3.923887,-12.33683 6.65686,-13.38745 20.563985,-23.09914 35.537816,-24.81694 1.54019,-0.17668 2.95037,-0.3638 3.13373,-0.4158 0.26187,-0.0743 0.33338,-3.49013 0.33338,-15.9263 V 177.11435 H 81.037241 51.571068 l -0.07159,-6.23546 -0.07159,-6.23547 H 29.824648 8.2214071 l -0.067497,42.30845 -0.067497,42.30845 29.5161779,-0.0682 29.516179,-0.0682 z"
       id="path1405"
       inkscape:connector-curvature="0"
       sodipodi:nodetypes="cssccccscccccccccccccccscccsscssccccccccccccscccccccccccsccccccccsccscccccccccccc" />
  </g>
</svg>
