<?xml version="1.0" encoding="UTF-8" standalone="no"?>
<svg
   xmlns:dc="http://purl.org/dc/elements/1.1/"
   xmlns:cc="http://creativecommons.org/ns#"
   xmlns:rdf="http://www.w3.org/1999/02/22-rdf-syntax-ns#"
   xmlns:svg="http://www.w3.org/2000/svg"
   xmlns="http://www.w3.org/2000/svg"
   xmlns:sodipodi="http://sodipodi.sourceforge.net/DTD/sodipodi-0.dtd"
   xmlns:inkscape="http://www.inkscape.org/namespaces/inkscape"
   version="1.0"
   width="1280.000000pt"
   height="1196.000000pt"
   viewBox="0 0 1280.000000 1196.000000"
   preserveAspectRatio="xMidYMid meet"
   id="svg10"
   sodipodi:docname="puzzle.svg"
   inkscape:version="0.92.4 (5da689c313, 2019-01-14)">
  <defs
     id="defs14" />
  <sodipodi:namedview
     pagecolor="#ffffff"
     bordercolor="#666666"
     borderopacity="1"
     objecttolerance="10"
     gridtolerance="10"
     guidetolerance="10"
     inkscape:pageopacity="0"
     inkscape:pageshadow="2"
     inkscape:window-width="1920"
     inkscape:window-height="1017"
     id="namedview12"
     showgrid="false"
     inkscape:zoom="0.14799331"
     inkscape:cx="-295.36723"
     inkscape:cy="797.33333"
     inkscape:window-x="-8"
     inkscape:window-y="-8"
     inkscape:window-maximized="1"
     inkscape:current-layer="svg10" />
  <metadata
     id="metadata2">
Created by potrace 1.15, written by Peter Selinger 2001-2017
<rdf:RDF>
  <cc:Work
     rdf:about="">
    <dc:format>image/svg+xml</dc:format>
    <dc:type
       rdf:resource="http://purl.org/dc/dcmitype/StillImage" />
  </cc:Work>
</rdf:RDF>
</metadata>
  <g
     transform="translate(0.000000,1196.000000) scale(0.100000,-0.100000)"
     fill="#000000"
     stroke="none"
     id="g8"
     style="fill:#c5c5c5;fill-opacity:1">
    <path
       d="M9576 11950 c-165 -26 -315 -88 -383 -158 -57 -58 -115 -177 -121 -246 -3 -43 1 -66 20 -108 27 -58 63 -93 187 -181 101 -71 116 -93 116 -170 0 -115 -59 -168 -190 -175 -62 -3 -120 9 -520 108 -1272 314 -1176 293 -1213 276 -18 -9 -37 -26 -42 -38 -6 -13 -64 -246 -131 -518 -67 -272 -153 -621 -192 -775 -99 -393 -102 -522 -17 -654 68 -106 180 -157 324 -149 132 7 190 47 301 204 38 52 79 103 92 111 22 15 27 15 61 -1 106 -50 155 -121 189 -278 19 -90 21 -286 4 -388 -27 -157 -120 -386 -211 -520 -55 -81 -148 -173 -203 -199 -47 -23 -144 -29 -176 -11 -26 13 -30 28 -47 158 -16 124 -32 175 -76 239 -80 118 -272 175 -413 122 -68 -25 -157 -109 -197 -185 -18 -33 -56 -167 -112 -395 -47 -189 -139 -564 -205 -832 -67 -269 -121 -505 -121 -526 0 -57 29 -77 151 -107 57 -14 291 -70 519 -124 228 -54 548 -131 710 -170 247 -60 310 -72 385 -73 248 -2 398 136 399 369 0 59 -5 81 -31 135 -38 76 -73 112 -190 193 -47 34 -91 68 -96 77 -16 25 1 80 39 132 65 89 221 139 434 138 214 0 336 -30 555 -136 137 -66 247 -144 306 -216 57 -70 69 -100 69 -178 0 -64 -2 -72 -25 -87 -14 -9 -73 -22 -135 -30 -152 -20 -212 -44 -281 -113 -73 -74 -102 -145 -103 -256 -1 -100 29 -172 102 -243 102 -99 111 -102 997 -322 444 -110 819 -200 832 -200 42 0 77 47 97 130 89 368 389 1571 398 1594 16 39 64 93 99 112 54 28 145 10 197 -38 27 -26 48 -92 57 -184 16 -157 52 -234 132 -280 39 -23 61 -29 133 -32 48 -2 111 1 140 7 113 24 287 178 383 338 67 111 154 315 182 425 72 285 55 567 -46 771 -44 89 -63 112 -138 161 -110 74 -184 91 -272 64 -57 -16 -109 -66 -184 -173 -84 -121 -111 -140 -191 -139 -113 2 -165 59 -172 189 -4 77 -13 34 248 1090 72 292 134 555 137 587 9 94 19 90 -438 203 -1096 270 -1273 315 -1298 331 -78 49 -108 105 -97 179 9 56 41 103 87 127 19 10 84 25 145 33 60 8 124 19 143 24 56 17 108 58 138 108 26 45 28 55 28 168 0 114 -2 123 -30 179 -62 122 -238 278 -412 365 -115 57 -264 112 -371 137 -121 28 -355 40 -456 24z"
       id="path4"
       style="fill:#c5c5c5;fill-opacity:1" />
    <path
       d="M2210 10745 c-297 -43 -567 -189 -637 -344 -35 -79 -56 -176 -48 -232 9 -62 53 -131 105 -164 23 -14 86 -43 140 -65 55 -21 113 -48 129 -59 44 -32 64 -83 59 -154 -4 -55 -8 -63 -45 -98 -82 -76 -43 -73 -1005 -77 l-857 -3 -25 -30 -26 -31 0 -831 c0 -911 0 -906 60 -1031 39 -82 119 -157 192 -182 68 -22 178 -22 245 0 113 38 171 105 240 279 24 61 48 116 54 123 32 39 163 0 221 -66 162 -184 230 -527 170 -854 -27 -142 -51 -216 -103 -316 -70 -136 -150 -200 -249 -200 -47 0 -57 13 -100 123 -44 116 -74 168 -122 214 -57 54 -108 80 -189 92 -169 27 -299 -45 -378 -209 l-36 -75 -3 -1698 c-2 -1868 -5 -1772 59 -1902 60 -122 154 -186 285 -193 190 -10 312 76 383 273 57 159 70 172 148 155 67 -15 104 -39 153 -101 151 -191 208 -506 151 -826 -58 -327 -193 -523 -361 -523 -37 0 -50 18 -96 139 -79 204 -162 280 -325 297 -175 18 -324 -86 -379 -264 -19 -62 -20 -96 -20 -949 l0 -885 31 -30 31 -31 852 6 c585 4 868 10 906 18 81 17 172 61 224 109 151 139 137 407 -28 531 -27 21 -99 57 -159 80 -154 59 -161 68 -131 170 37 126 231 240 483 284 168 30 424 10 608 -46 97 -30 215 -94 272 -148 39 -36 53 -58 66 -103 9 -32 15 -68 13 -80 -3 -25 -47 -51 -186 -106 -114 -47 -172 -95 -214 -179 -30 -62 -33 -75 -33 -163 0 -79 4 -104 24 -148 34 -75 120 -151 212 -188 l74 -29 830 -7 c457 -4 884 -10 950 -13 66 -3 460 -2 875 3 l755 8 80 28 c189 65 274 185 263 371 -4 56 -12 94 -28 125 -52 102 -106 144 -263 206 -137 54 -150 66 -137 136 5 26 16 61 24 77 40 77 213 180 368 220 179 46 335 49 548 10 133 -23 216 -50 308 -99 136 -73 182 -126 198 -230 10 -60 -5 -74 -123 -120 -230 -88 -306 -178 -307 -365 -1 -83 2 -96 32 -157 37 -76 89 -125 170 -164 113 -53 120 -54 1020 -54 917 0 879 -3 901 61 8 23 11 289 11 894 l0 863 28 53 c35 68 74 91 147 90 110 -1 138 -32 216 -240 28 -73 85 -143 140 -171 56 -29 150 -27 252 7 72 24 89 34 142 87 164 166 258 437 272 781 13 317 -77 604 -245 787 -66 72 -143 111 -251 130 -61 10 -77 10 -124 -5 -94 -30 -128 -75 -212 -280 -47 -115 -87 -147 -183 -147 -68 0 -109 30 -147 105 l-30 60 -5 865 c-5 910 -4 896 -50 920 -12 7 -315 10 -887 10 l-868 0 -55 28 c-70 35 -100 78 -100 143 0 107 34 143 194 206 104 40 128 54 172 98 83 83 92 172 33 330 -53 141 -247 278 -481 340 -310 81 -589 79 -842 -6 -160 -53 -312 -148 -378 -236 -60 -79 -95 -230 -73 -315 24 -93 84 -144 238 -201 154 -57 187 -91 187 -195 0 -98 -58 -155 -185 -182 -33 -7 -305 -9 -805 -8 l-755 3 -3 780 c-2 544 0 796 8 832 6 28 25 70 41 93 40 55 86 74 158 65 82 -10 116 -49 171 -193 68 -176 138 -241 263 -242 89 0 207 43 268 98 56 50 124 141 163 220 72 144 136 435 136 620 -1 327 -121 648 -299 798 -42 35 -183 84 -245 84 -143 0 -209 -64 -291 -287 -15 -40 -39 -86 -54 -102 -50 -53 -163 -65 -220 -24 -14 10 -39 46 -56 78 l-30 60 -6 820 c-8 1011 -5 918 -28 946 l-19 24 -884 5 -883 5 -50 26 c-69 36 -95 77 -95 148 0 106 33 139 207 206 144 56 200 107 221 201 20 88 -25 249 -89 322 -116 130 -314 225 -569 272 -147 27 -344 34 -470 15z"
       id="path6"
       style="fill:#c5c5c5;fill-opacity:1" />
  </g>
</svg>
