<?xml version="1.0" encoding="UTF-8" standalone="no"?>
<svg
   xmlns:dc="http://purl.org/dc/elements/1.1/"
   xmlns:cc="http://creativecommons.org/ns#"
   xmlns:rdf="http://www.w3.org/1999/02/22-rdf-syntax-ns#"
   xmlns:svg="http://www.w3.org/2000/svg"
   xmlns="http://www.w3.org/2000/svg"
   xmlns:sodipodi="http://sodipodi.sourceforge.net/DTD/sodipodi-0.dtd"
   xmlns:inkscape="http://www.inkscape.org/namespaces/inkscape"
   width="16"
   height="16"
   viewBox="0 0 16 16"
   fill="none"
   version="1.1"
   id="svg6"
   sodipodi:docname="skos2.svg"
   inkscape:version="0.92.4 (5da689c313, 2019-01-14)">
  <metadata
     id="metadata12">
    <rdf:RDF>
      <cc:Work
         rdf:about="">
        <dc:format>image/svg+xml</dc:format>
        <dc:type
           rdf:resource="http://purl.org/dc/dcmitype/StillImage" />
        <dc:title></dc:title>
      </cc:Work>
    </rdf:RDF>
  </metadata>
  <defs
     id="defs10" />
  <sodipodi:namedview
     pagecolor="#ffffff"
     bordercolor="#666666"
     borderopacity="1"
     objecttolerance="10"
     gridtolerance="10"
     guidetolerance="10"
     inkscape:pageopacity="0"
     inkscape:pageshadow="2"
     inkscape:window-width="1920"
     inkscape:window-height="1017"
     id="namedview8"
     showgrid="false"
     inkscape:zoom="29.5"
     inkscape:cx="16.516479"
     inkscape:cy="11.899992"
     inkscape:window-x="-8"
     inkscape:window-y="-8"
     inkscape:window-maximized="1"
     inkscape:current-layer="svg6" />
  <text
     xml:space="preserve"
     style="font-style:normal;font-weight:normal;font-size:40px;line-height:1.25;font-family:sans-serif;letter-spacing:0px;word-spacing:0px;fill:#000000;fill-opacity:1;stroke:none"
     x="2.5084746"
     y="6.5762711"
     id="text3719"><tspan
       sodipodi:role="line"
       id="tspan3717"
       x="2.5084746"
       y="43.069485" /></text>
  <path
     style="fill:#c5c5c5;fill-opacity:1;stroke-width:0.09859256"
     d="M 0.68583857,7.3407768 0.38353459,7.6168392 0.08123072,7.8929017 v 3.7843563 3.784356 l 0.30230387,0.276062 0.30230398,0.276062 H 8.0060712 15.326304 l 0.317979,-0.289866 0.317978,-0.289865 V 11.677258 7.920508 L 15.644283,7.6306422 15.326304,7.3407768 H 8.0060712 Z M 2.6564121,7.9780209 a 1.4904702,1.5312262 0 0 1 1.4667336,1.2721876 h 2.371406 a 1.4904702,1.5312262 0 0 1 1.4667338,-1.251483 1.4904702,1.5312262 0 0 1 1.4891264,1.5298459 1.4904702,1.5312262 0 0 1 -0.00896,0.1679381 L 12.3794,10.793857 a 1.4904702,1.5312262 0 0 1 1.410752,-1.0398346 1.4904702,1.5312262 0 0 1 1.491365,1.5321476 1.4904702,1.5312262 0 0 1 -1.491365,1.532145 1.4904702,1.5312262 0 0 1 -1.491365,-1.532145 1.4904702,1.5312262 0 0 1 0.01344,-0.184043 L 9.3765154,10.002479 A 1.4904702,1.5312262 0 0 1 8.494236,10.959495 l 0.6650686,1.244582 a 1.4904702,1.5312262 0 0 1 0.3941147,-0.05291 1.4904702,1.5312262 0 0 1 1.4913657,1.529846 1.4904702,1.5312262 0 0 1 -1.4913657,1.532147 1.4904702,1.5312262 0 0 1 -1.4891266,-1.532147 h -1.997445 a 1.4904702,1.5312262 0 0 1 0.00223,0.08052 A 1.4904702,1.5312262 0 0 1 4.5799574,15.29368 1.4904702,1.5312262 0 0 1 3.0885916,13.761533 1.4904702,1.5312262 0 0 1 3.8790603,12.41113 L 3.1065089,10.966396 A 1.4904702,1.5312262 0 0 1 2.6564121,11.040013 1.4904702,1.5312262 0 0 1 1.1650461,9.5101673 1.4904702,1.5312262 0 0 1 2.6564121,7.9780209 Z M 4.1432994,9.569981 a 1.4904702,1.5312262 0 0 1 -0.7568796,1.272188 l 0.7747937,1.451629 a 1.4904702,1.5312262 0 0 1 0.4187469,-0.06441 1.4904702,1.5312262 0 0 1 1.4734516,1.332001 H 8.0687713 A 1.4904702,1.5312262 0 0 1 8.874915,12.3191 L 8.1919321,11.04001 A 1.4904702,1.5312262 0 0 1 7.9612855,11.06071 1.4904702,1.5312262 0 0 1 6.472159,9.569974 Z"
     id="path3812"
     inkscape:connector-curvature="0" />
  <g
     aria-label="SKOS"
     transform="matrix(1.0794835,0,0,1.5549261,-1.1467172,-2.0067725)"
     style="font-style:normal;font-variant:normal;font-weight:bold;font-stretch:normal;font-size:4.98941469px;line-height:1.25;font-family:sans-serif;-inkscape-font-specification:'sans-serif Bold';letter-spacing:0px;word-spacing:0px;fill:#c5c5c5;fill-opacity:1;stroke:none;stroke-width:0.93551522"
     id="text14">
    <path
       d="m 4.2381534,3.9021095 q 0,0.5359723 -0.4555764,0.8721731 -0.4531402,0.3337646 -1.2327363,0.3337646 -0.4507039,0 -0.7869047,-0.07796 Q 1.4291714,4.9496917 1.1368229,4.8278798 V 3.958143 h 0.102322 q 0.2899122,0.2314426 0.6480392,0.3556907 0.3605631,0.1242481 0.6918915,0.1242481 0.085268,0 0.2241338,-0.014617 0.1388656,-0.014617 0.2265701,-0.048725 0.1071945,-0.043852 0.1754091,-0.1096307 0.070651,-0.065778 0.070651,-0.194899 0,-0.1193756 -0.1023219,-0.2046439 Q 3.0736318,3.7778614 2.8787328,3.7315729 2.6740888,3.6828481 2.4450825,3.6414321 2.2185124,3.5975798 2.0187409,3.5318014 1.5607282,3.3831909 1.3585205,3.1298222 1.158749,2.8740173 1.158749,2.4964004 q 0,-0.5067374 0.4531402,-0.8258845 0.4555765,-0.3215834 1.1693941,-0.3215834 0.3581269,0 0.7065089,0.070651 0.3508182,0.068215 0.6066232,0.1729729 V 2.4281858 H 3.9945296 Q 3.7752683,2.2527767 3.4561211,2.1358372 3.1394102,2.0164616 2.8080819,2.0164616 q -0.1169394,0 -0.2338788,0.017054 -0.1145032,0.014617 -0.2216976,0.05847 -0.095013,0.036543 -0.163228,0.1120669 -0.068215,0.073087 -0.068215,0.1681004 0,0.143738 0.1096307,0.2216976 0.1096307,0.075523 0.4141604,0.1388656 0.1997715,0.041416 0.3824893,0.080396 0.1851541,0.03898 0.3971067,0.1071945 0.4165967,0.1364293 0.6139319,0.3727443 0.1997715,0.2338788 0.1997719,0.6090586 z"
       style="fill:#c5c5c5;fill-opacity:1;stroke-width:0.93551522"
       id="path16"
       inkscape:connector-curvature="0" />
    <path
       d="M 8.2676905,5.0422688 H 7.1202226 L 6.0360968,3.5902711 5.8168354,3.855821 V 5.0422688 H 4.8813202 V 1.4147109 H 5.8168354 V 3.0567351 L 7.1129139,1.4147109 H 8.1970396 L 6.7791493,3.0932786 Z"
       style="fill:#c5c5c5;fill-opacity:1;stroke-width:0.93551522"
       id="path18"
       inkscape:connector-curvature="0" />
    <path
       d="m 12.258248,3.2297079 q 0,0.8673006 -0.496993,1.3789106 -0.496992,0.5091736 -1.374038,0.5091736 -0.874609,0 -1.3716014,-0.5091736 -0.4969925,-0.51161 -0.4969925,-1.3789106 0,-0.8746093 0.4969925,-1.3813467 0.4969924,-0.5091737 1.3716014,-0.5091737 0.872173,0 1.371602,0.5091737 0.499429,0.5067374 0.499429,1.3813467 z m -1.240045,0.9184616 q 0.136429,-0.1656641 0.202208,-0.389798 0.06578,-0.2265701 0.06578,-0.5310998 0,-0.3264558 -0.07552,-0.5554622 -0.07552,-0.2290063 -0.197336,-0.3703081 -0.124248,-0.1461743 -0.287476,-0.2119527 -0.160791,-0.065778 -0.3362,-0.065778 -0.177846,0 -0.336201,0.063342 -0.1559194,0.063342 -0.2874763,0.2095164 -0.1218118,0.1364293 -0.1997714,0.3776169 -0.075523,0.2387513 -0.075523,0.5554621 0,0.3240197 0.073087,0.553026 0.075523,0.2265701 0.1973353,0.3703081 0.1218119,0.143738 0.2850394,0.2119527 0.163228,0.068215 0.34351,0.068215 0.180281,0 0.343509,-0.068215 0.163228,-0.070651 0.28504,-0.2168252 z"
       style="fill:#c5c5c5;fill-opacity:1;stroke-width:0.93551522"
       id="path20"
       inkscape:connector-curvature="0" />
    <path
       d="m 15.873625,3.9021095 q 0,0.5359723 -0.455577,0.8721731 -0.45314,0.3337646 -1.232736,0.3337646 -0.450704,0 -0.786905,-0.07796 -0.333764,-0.080396 -0.626113,-0.2022078 V 3.958143 h 0.102322 q 0.289912,0.2314426 0.648039,0.3556907 0.360564,0.1242481 0.691892,0.1242481 0.08527,0 0.224134,-0.014617 0.138865,-0.014617 0.22657,-0.048725 0.107194,-0.043852 0.175409,-0.1096307 0.07065,-0.065778 0.07065,-0.194899 0,-0.1193756 -0.102322,-0.2046439 Q 14.709103,3.7778614 14.514204,3.7315729 14.30956,3.6828481 14.080554,3.6414321 13.853984,3.5975798 13.654212,3.5318014 13.1962,3.3831909 12.993992,3.1298222 12.79422,2.8740173 12.79422,2.4964004 q 0,-0.5067374 0.453141,-0.8258845 0.455576,-0.3215834 1.169394,-0.3215834 0.358127,0 0.706509,0.070651 0.350818,0.068215 0.606623,0.1729729 v 0.8356295 h -0.09989 Q 15.41074,2.2527767 15.091592,2.1358372 14.774882,2.0164616 14.443553,2.0164616 q -0.116939,0 -0.233879,0.017054 -0.114503,0.014617 -0.221697,0.05847 -0.09501,0.036543 -0.163228,0.1120669 -0.06822,0.073087 -0.06822,0.1681004 0,0.143738 0.109631,0.2216976 0.109631,0.075523 0.41416,0.1388656 0.199772,0.041416 0.38249,0.080396 0.185154,0.03898 0.397106,0.1071945 0.416597,0.1364293 0.613932,0.3727443 0.199772,0.2338788 0.199772,0.6090594 z"
       style="fill:#c5c5c5;fill-opacity:1;stroke-width:0.93551522"
       id="path22"
       inkscape:connector-curvature="0" />
  </g>
</svg>
