<?xml version="1.0" encoding="UTF-8" standalone="no"?>
<svg
   xmlns:dc="http://purl.org/dc/elements/1.1/"
   xmlns:cc="http://creativecommons.org/ns#"
   xmlns:rdf="http://www.w3.org/1999/02/22-rdf-syntax-ns#"
   xmlns:svg="http://www.w3.org/2000/svg"
   xmlns="http://www.w3.org/2000/svg"
   xmlns:sodipodi="http://sodipodi.sourceforge.net/DTD/sodipodi-0.dtd"
   xmlns:inkscape="http://www.inkscape.org/namespaces/inkscape"
   width="16"
   height="16"
   viewBox="0 0 16 16"
   fill="none"
   version="1.1"
   id="svg6"
   sodipodi:docname="skos.svg"
   inkscape:version="0.92.4 (5da689c313, 2019-01-14)">
  <metadata
     id="metadata12">
    <rdf:RDF>
      <cc:Work
         rdf:about="">
        <dc:format>image/svg+xml</dc:format>
        <dc:type
           rdf:resource="http://purl.org/dc/dcmitype/StillImage" />
      </cc:Work>
    </rdf:RDF>
  </metadata>
  <defs
     id="defs10" />
  <sodipodi:namedview
     pagecolor="#ffffff"
     bordercolor="#666666"
     borderopacity="1"
     objecttolerance="10"
     gridtolerance="10"
     guidetolerance="10"
     inkscape:pageopacity="0"
     inkscape:pageshadow="2"
     inkscape:window-width="1920"
     inkscape:window-height="1017"
     id="namedview8"
     showgrid="false"
     inkscape:zoom="29.5"
     inkscape:cx="23.519483"
     inkscape:cy="3.0401405"
     inkscape:window-x="-8"
     inkscape:window-y="-8"
     inkscape:window-maximized="1"
     inkscape:current-layer="svg6" />
  <text
     xml:space="preserve"
     style="font-style:normal;font-weight:normal;font-size:40px;line-height:1.25;font-family:sans-serif;letter-spacing:0px;word-spacing:0px;fill:#000000;fill-opacity:1;stroke:none"
     x="2.5084746"
     y="6.5762711"
     id="text3719"><tspan
       sodipodi:role="line"
       id="tspan3717"
       x="2.5084746"
       y="43.069485"></tspan></text>
  <path
     style="fill:#c5c5c5;fill-opacity:1;stroke-width:0.03389831"
     d="M 2.646174,4.5692329 V 2.4166905 H 1.8495638 1.0529536 V 1.9082159 1.3997413 H 3.3071909 5.5614282 V 1.9082159 2.4166905 H 4.7478689 3.9343096 V 4.5692329 6.7217756 H 3.2902418 2.646174 Z"
     id="path3769"
     inkscape:connector-curvature="0" />
  <path
     style="fill:#c5c5c5;fill-opacity:1;stroke-width:0.03389831"
     d="M 7.4597333,4.5692329 V 2.4166905 H 6.6631231 5.866513 V 1.9082159 1.3997413 H 8.1207503 10.374987 V 1.9082159 2.4166905 H 9.5783774 8.7817672 V 4.5692329 6.7217756 H 8.1207503 7.4597333 Z"
     id="path3771"
     inkscape:connector-curvature="0" />
  <path
     style="fill:#c5c5c5;fill-opacity:1;stroke-width:0.03389831"
     d="m 11.188547,4.0607583 v -2.661017 h 0.661017 0.661017 v 2.1525424 2.1525424 h 1.18644 1.186441 v 0.5084745 0.508475 h -1.847458 -1.847457 z"
     id="path3773"
     inkscape:connector-curvature="0" />
  <path
     style="fill:#c5c5c5;fill-opacity:1;stroke-width:0.08484109"
     d="M 1.3575981,14.728831 1.0947095,14.494881 V 11.281164 8.0674458 L 1.3575981,7.8334973 1.6204875,7.5995488 h 6.3854332 6.3854323 l 0.276725,0.2462619 0.276726,0.246262 v 3.1890913 3.189091 l -0.276726,0.246262 -0.276725,0.246262 H 8.0059207 1.6204875 Z M 12.605402,12.16155 13.433924,11.321182 12.750393,11.29781 12.066861,11.274438 V 10.277363 9.2802907 H 11.347376 10.627891 V 10.28073 11.281168 H 9.9938726 c -0.5189023,0 -0.6209609,0.02043 -0.5620977,0.112541 0.039556,0.06189 0.491655,0.533921 1.0046641,1.048942 l 0.932746,0.936404 0.203847,-0.188566 c 0.112115,-0.10371 0.576682,-0.566731 1.03237,-1.028934 z M 4.4223298,12.19628 V 11.110526 L 5.058331,11.79728 c 0.3498001,0.377715 0.6651386,0.670728 0.7007522,0.651141 0.035616,-0.01958 0.3261248,-0.325169 0.6455821,-0.679072 l 0.580831,-0.643458 0.025027,1.078072 0.025027,1.078071 H 7.7524957 8.4694438 V 11.281161 9.2802831 L 7.7274743,9.2831231 6.9855047,9.2859631 6.4458909,9.890022 C 6.1491035,10.22226 5.8607095,10.527804 5.8050158,10.569015 5.7357432,10.620271 5.4999035,10.428515 5.0585401,9.9620876 L 4.4133248,9.2802214 H 3.6983457 2.9833676 v 2.0008776 2.000878 h 0.7194852 0.7194854 z"
     id="path3812"
     inkscape:connector-curvature="0" />
</svg>
